# xmcd CD database file
#
# Track frame offsets:
#	150
#	9207
#	29152
#	42332
#	59252
#	86617
#	99102
#	130940
#	144500
#	173677
#	190805
#	227212
#	244740
#	257242
#	268505
#	278425
#
# Disc length: 3970 seconds
#
# Revision: 1
# Processed by: cddbd v1.5.2PL0 Copyright (c) Steve Scherf et al.
# Submitted via: CDex 1.51
#
DISCID=d30f8010
DTITLE=MASTODON - REMISSION
DYEAR=2002
DGENRE=Rock
TTITLE0=CRUSHER DESTROYER
TTITLE1=MARCH OF THE FIRE ANTS
TTITLE2=WHERE STRIDES THE BEHEMOTH
TTITLE3=WORKHORSE
TTITLE4=OL'E NESSIE
TTITLE5=BURNING MAN
TTITLE6=TRAINWRECK
TTITLE7=TRAMPLED UNDER HOOF
TTITLE8=TRILOBITE
TTITLE9=MOTHER PUNCHER
TTITLE10=ELEPHANT MAN
TTITLE11=SHADOWS THAT MOVE
TTITLE12=WELCOMING WAR
TTITLE13=WE BUILT THIS COME DEATH
TTITLE14=HAIL TO FIRE
TTITLE15=BATTLE AT SEA
EXTD=YEAR: 2002
EXTT0=
EXTT1=
EXTT2=
EXTT3=
EXTT4=
EXTT5=
EXTT6=
EXTT7=
EXTT8=
EXTT9=
EXTT10=
EXTT11=
EXTT12=
EXTT13=
EXTT14=
EXTT15=
PLAYORDER=
